<mxfile host="app.diagrams.net" modified="2024-03-02T00:43:20.902Z" agent="Mozilla/5.0 (Windows NT 10.0; Win64; x64; rv:123.0) Gecko/20100101 Firefox/123.0" etag="2m05j67JtIso_0lmEzbP" version="24.0.0" type="device">
  <diagram name="PÃ¡gina-1" id="0SP-c21yCdWkp-87FdtG">
    <mxGraphModel dx="1194" dy="716" grid="1" gridSize="10" guides="1" tooltips="1" connect="1" arrows="1" fold="1" page="1" pageScale="1" pageWidth="827" pageHeight="1169" math="0" shadow="0">
      <root>
        <mxCell id="0" />
        <mxCell id="1" parent="0" />
        <mxCell id="Xk6L46Khj1X6TItAejbs-22" value="" style="shape=image;verticalLabelPosition=bottom;labelBackgroundColor=default;verticalAlign=top;aspect=fixed;imageAspect=0;image=data:image/png,iVBORw0KGgoAAAANSUhEUgAAAgAAAAIACAYAAAD0eNT6AAAABHNCSVQICAgIfAhkiAAAAAlwSFlzAAAN1wAADdcBQiibeAAAABl0RVh0U29mdHdhcmUAd3d3Lmlua3NjYXBlLm9yZ5vuPBoAACAASURBVHic7d15nKVXXe/7z9pDzdWd7s7AEBLCkAQSIUxGYBMmQSIgCIoijqhcFL0qDi/1Xo9Hr+j1XhXlylE8x3OYUUJMQpKuoJAQKEiITAIREoYEQhJCpu6uaY/Pun883Umn00MNez/P3nt93q/XflV3V9Wzful07fV91rOGEGNEkiSlpVJ2AZIkqXgGAEmSEmQAkCQpQQYASZISZACQJClBBgBJkhJkAJAkKUEGAEmSEmQAkCQpQQYASZISZACQJClBBgBJkhJkAJAkKUEGAEmSEmQAkCQpQQYASZISZACQJClBBgBJkhJkAJAkKUEGAEmSEmQAkCQpQQYASZISZACQJClBBgBJkhJkAJAkKUEGAEmSEmQAkCQpQQYASZISZACQJClBBgBJkhJkAJAkKUEGAEmSEmQAkCQpQQYASZISZACQJClBBgBJkhJkAJAkKUEGAEmSEmQAkCQpQQYASZISZACQJClBBgBJkhJkAJAkKUEGAEmSEmQAkCQpQQYASZISZACQJClBBgBJkhJkAJAkKUEGAEmSEmQAkCQpQQYASZISZACQJClBBgBJkhJkAJAkKUEGAEmSEmQAkCQpQQYASZISZACQJClBBgBJkhJkAJAkKUEGAEmSEmQAkCQpQQYASZISZACQJClBBgBJkhJkAJAkKUEGAEmSEmQAkCQpQQYASZISZACQJClBBgBJkhJkAJAkKUEGAEmSEmQAkCQpQQYASZISZACQJClBBgBJkhJkAJAkKUEGAEmSEmQAkCQpQQYASZISZACQJClBBgBJkhJkAJAkKUEGAEmSEmQAkCQpQQYASZISZACQJClBBgBJkhJkAJAkKUEGAEmSEmQAkCQpQQYASZISZACQJClBBgBJkhJkAJAkKUEGAEmSEmQAkCQpQQYASZISZACQJClBBgBJkhJkAJAkKUEGAEmSEmQAkCQpQQYASZISZACQJClBBgBJkhJkAJAkKUEGAEmSEmQAkCQpQQYASZISZACQJClBtbILkDR+wkJzDjgZeCiRhwLHAfuAu4A7ge/Sy+6IL51pl1imlLQQYyy7BklDLiw0zyWLLyDGpxI5gRjngFkis8Q4mb+oE2OVGCsc620lBKhVoF7tUq+uUq/uo169G1je/7oT+NrBr9jg7oH+R0qJMQBIuk9YaD6BGF9IFp9BFh9HFh9ON5sjxrCpC1YC1Kp5Z1+r3P/r6qaePu7hkFCw/3VjbHDnpuqTEmYAkBIUFpo7ifE1ZDyTLDuLLD6CXraNbJMd/QETNZiqQb2ad/aVrV1uA74GLAIfBxZjgxuLalgaVQYAKRFhd/OFZNnr6WXPotM7/pjD9Ou6KDBZh8kaTNWL7PCP5bvkgeDA63OxQbfckqThYgCQxlRYaJ5IFn+VXvZyutmZ9LL+TPqthPs7/Mla/jx/+K0A1wIfBS6MDb5cbjlS+QwA0hgJu5svI8t+nm72TLq9nX25y4f8mf3U/k5/YiwWD30JeD/w/tjghrKLkcpgAJBGXNjd/EW6vd+gm51OL6v278IBZuowPZE/0x9fX+D+MPDVsouRimIAkEZQWGieRC/+JZ3uK+hm0329eCXAzATMTg7TM/2ifJ77w8DXyy5GGiQDgDRCwu7mK+j2/oh276xNL807kkqAucm88x+N5/qD9nHgzcAlsUFWdjFSvxkApCEXFprbyOL/Taf3Gjq9bX1voFrJO/7piXxWvw51E/AW4B9jg6Wyi5H6xQAgDamw0Hw23ezPaXefRhb7f25HvZoP80/X+37pMbUP+J/AW2KDm8ouRtoqA4A0ZMLutf+dTu8PaPeOH0gDE1WYm8qX8GkzMuBi4K9jg4+XXYy0WQYAaUiE3c0fpdN9K+3eCQNpoFqBbVP5Uj71y2eAP4sNLiy7EGmjDABSycJCs0Gn905a3dMG1sjMRN75O7lvUD4J/GZscG3ZhUjrZQCQShIWmmfSzf6JVueJfduw51DVCmyfdri/OBcAvxsbfKPsQqRjMQBIBQsLzZPoZu+j1X1O35fyHWx2EuYnvesvXhv4W+BPYoN7yy5GOhIDgFSQsNCcoRf/F63OjwxkVv8BtQpsn8kn+6lM9wL/F/DW2KBddjHSoQwAUgHC5WtvptV9A71ssDPw5ibzGf7e9A+Tb5A/Frig7EKkgxkApAEKC80zafc+Qrv7sIE2VK/mz/rHe8/+UXcZ8LrY4PayC5EABjcMKSUuXL72Z6y2rx945z87CcfP2fkPv5cA14dFXlN2IRI4AiD1XVhoPoJO7ypa3UcPvLHt0/kSP42ai4DXxwbfLbsQpcsRAKmPwu6132Ktc9PAO/8QYOesnf/o+mHy0YBXlV2I0uUIgNQHYaG5k07vSlrdJw68sWoFdsw45D8+3g+8ITa4q+xClBZHAKQtCrubr2Wtc3shnX+9Crtm7fzHy6vIRwNeXnYhSosjANImhYXmDN3sX2l2nllIg5O1/M5/xDb2eUgNTqrBrmr+2rk/u6xFWM3yj2uHfFzqwT09aKb39vQW4I2xQa/sQjT+DADSJoSF5tk0u9fQ7c0V0uDMRD7hb4TMVuD5s/D4yc1fYzmDu3v7X9384129/M/H2EeAV8UG95RdiMabAUDaoLC7+XKanQvoZcVssD8/lW/wM0LOmYLnzMLUgAYr9mXwuTX4fCsfNRhD3wB+KDa4vuxCNL4MANIGhMvXfp+1zp8MdA//+xoDjpsZueN7z5uBZ8wU01Y3wpdbcM1a/shgzCwDPxkbXFJ2IRpPBgBpncJla+9jrf3jhTW4Y/Q6/0fU4Se2F78TcTPCe/fCd7sFNzx4EfhD8oOFfLNWXxkApGMIC80a3ew6mp0nFdbotql8h78RMhngtTtge0lri9YyeM/efI7AGPoA8LOxwUrZhWh8uAxQOoqw0DyRdvfbhXb+sxMj1/kDPHu2vM4fYLoCr94OO8ZzheSPAJ8Ii5xadiEaHwYA6QjCQvMpNDs30+6dVFijU3XYNlqz/Q941BA8rZitQKOg+QcleCJ5CDij7EI0HgwA0mGE3c2fYLX9KbpZcb3xRBWOG83Of64Cxw3JnfeZkzAzvu9sDweuDoucVXYhGn3j+2MibVK4fO0PWW2/hywW16XVKrBjduQ2+Tng5CG4+z+gCjxx9J6gbMRJwEfDIoPfeVJjzQAgHSTsXvsd1tr/lSInx1b2H+xTGc3OH+BhxeyIsG5PnCq7goE7HrgqLPLUsgvR6BqyH1sNo/Ch9i6y7Flk8anEeBaRU4lxlsgUxEkiE0TqEGtEasSYB8sQegS6hNAm0ILQJLBCCCvAMoG9hHAbIXySwL/F86fuKPW/c3fz9ax2/rzQxVYHTvWrjnYWbw/ZYqK50f7rXK8dwIfDIufHBteUXYxGj8sAdZ9wRetJZNmryeLTyOIpZPF4etkcWSzm7bRa6VEJe6hWvk0I/0mF6wjhw/H8qS8Nuun9z/zfXcgGPwcbwbX+h3PmJLx8vuwq7teJ8Jd3l11FYZaBF8cGHyu7EI0WA0Ciwodas/Tiq8jiS8myp9DNHk4vG5JpXIeohEi1cg+1yqeoVN5H4J/i+VN92/Il7G6+lLX2xYUFnQO2T+d7/I+B46vwCzvKruJ+7Qh/lU4AAFgl3zr4I2UXotFhAEhI2N38KXrZ6+llZ9PtbRvZfcUqIVKr3ka18jGq4R/j+VObftMLC83nstr+cOGd/1Q9v/sfExXgt44fnklFrQhvTisAADSBlxgCtF4GgDEWFpoTxPh6evG1dHpnD+0d/lZVK11qlW9QrSxQCX8cz59a1ylqYaF5LmudxcIO9TmgEuCE+ZGe9Hc4L5mHs4dk9v23O/DuvWVXUYp9wDNjg4E/NtPoMwCMmbDQnCOLv0kv+wk6vccUfmdbthAiE9UbqVX/Ov7g1N8f8csWmmez1vkMvaz4MfjjZmB69J/7H2q6Aq/bAdNDkGsuX4YvNsuuojS3AOfGBreXXYiGmwFgTISFZoNu9v/S7n5vcp3+kVQrHSaqV1Ot/J/x/KlPHfjjsNA8jWbnP+lmxS8WG7Oh/0M9YQp+cK7cGloR/vaefCLgIGyvwGQlb6ed5fMNhvD4gc8C53l2gI7GADDCwkKzRhb/D7q9X6bdO7HseoZavXoP9eo/Uwn/jWb3Wrq92cJrGNOh/0P96DZ4dIlzGz+9Bh/uc7c3X8lXOjx+Eh56mAdG3+rANatwU6e/7W7RpcAPx8Yw5hMNAwPACAoLzdPpZW+m3Xth4c+vtXljOvR/qAA8fSbfk7/ooahvdeCf90GvT29rFeCFc3DOOseKvtOFa9fgK63+tN8Hfxsb/GrZRWg4GQBGSFhonk03exetzjkjO4M/VWM+9H84D6vBD80Xd0bAXT149x5o9ulnox7yvQ02M5rx5VY+D6E7HD+nvxEb/HXZRWj4GABGQFhonkY3ew+t7tML3aJW/ZHI0P/h1AOcWodH7H89pDaYUYFvdeCyJdiX9ed60xV41bbDD/ev13e6cOE+WOpTTVuQAa+MDS4uuxANFwPAEAsLzZP2d/zPK3yHOvVPIkP/61EPsLOarxSYqjzw40wl/9yuKkyu81/7vT24agVubPe3zh/bBqf1YR7Dcgb/sg9u69u2VZu2Cjw7Nvh02YVoeBgAhlBYaB5HL3snre6LndE/4hIc+u+HuUq+u+CuKuyqwY4KzFfz+QV3duHOHny3C19v57e3/fSQGvzscf27XjfCwjJcX/68gJuBc2KDNHdI0IMYAIZM2L32WzS7f0ov85Zx1IUAJ6Y59D/KfngbnDGAVQzXrsHVK5Q9fed9scFPlFuChoUBYEiEhebpdHq7aXUfXXYt6pO5SZgf/3Npx8muKvziAM80+FobPrhU+umJPxMbvLPUCjQUHF4eAuHytf/Oavsrdv5jJASYHZJ9cbVu/XjufzSPmcgnF06UOyj01rCI7zUyAJQpLDRfEC5evofV9i+QOclvrMxMOPQ/goromE+ulx4C5oD3hUV8zJg4A0BJwmWrF7DS+lc6vSE6RFV9EciH/zVyiuqUT67nKw1KDAFPA/64tNY1FJwDULCw0Hw47d61tLsnl12LBmRmArZPl12FNuEH5uBJBU7buLUL79+bnytQggz4/tjgqlJaV+kcAShQ2N18NWudm+z8x5x3/yOrX7sIrtfDa/Bj29e/70GfVYB3hUV2ltK6SmcAKEi4bO29rLbe6/K+MTczAVV/rEbVDSWs1X9YuSHg4cD/KKVllc5HAAMWFpon0e5dR7t7Stm1qAAnzEPNADDKXrcj35GwaLd24L19PMhog14WG3ywlJZVGt+pBigsNM+l2fmmnX8iput2/mPgyyXt2PfwOrx4rpy2gTeHRXx2lRjfrQYk7G6+gtX2J+hm/lClwmf/Y+HzzXwP/zI8fhKeUc7O0Y8CfruUllUaA8AAhN1rv8Fq+wNksYSBRJViqg41/3ePg6UM3r+vtJn5nDcDZ5aTJX8vLOJoZUIMAH0WLl/7a1bbf+XpfYnx7n+sfLebn+LXK6n9l8zlhxIVbAb4y8JbVWmcBNhH4bLVi1nrvKzsOlQw1/2PrTMn4aXzUMbYznIG79iTj0gU7PmxwZWFt6rCGQD6JFy6ei3Nzrll16GCVUI+899tf8fWw+vwynmYKWG89DtdeM9e6BT7Nn09+bHB3UJbVeF8BNAH4dLVj9n5J2rblJ3/mLu1A2/fA3eU0B0+pAbnF78y4CzgVwpvVYVzBGCLwmWrl7HWeXHZdagEEzXYNVt2FSpIPeTP5s8oYbrHxUvwlWKXJ+4FzogN7ii0VRXKEYAtCJetvdfOP1HVis/9E9OJcNESfGK1+LZfNAdzxb5bbwf+S6EtqnCOAGxSuHzt71htv77sOlSCiSrsmHXoP2FPmMqH5ov8F/CNdr48sUAt4LTY4PZCW1VhHAHYhHD52p/Z+SdqZgJ2ztn5J+4LTdi9DEXePj1qAs4p8KRCYBJ4Y6EtqlCOAGxQ2N38NVZbf13oT77KF4Bt03kAkPY7exJePF/cSEAnwj/ugT3FbVCwDJwaG9xTWIsqjCMAGxAWmt/HWvuv7PwTUqvmM/1P3Gbnrwf5UgsuXypuJKAe4KXFPnqYA36tuOZUJEcA1ilc0drOWuc2ur1ydupWPuxeqeSxNYT8Vdn/MXD/rwGymL/iIR8P/vXhHLjmZC3v8Otu76tjO2sSXlLgSMBHV+DatYIag3vJRwGWCmtRhSh+s8lR1e5+xs6/INVKfqperZLfgR/42O/n7gdCQOD+4CBtwvWt/O78RQWt2W/M5G0WtEvgDuCXgT8vpDUVxhGAdQiXr72f1faPll3HWAohn1U/WcvX1dcqdsYaWc+fhacVtDr0+hZcWtw9+R3kKwKKG3fQwDkH4BjC7uYb7Pz7rF7ND8/ZNQsnbYOdszA7mf+5nb9G2JUr8PV2MW2dNVnogUEnAT9fWGsqhCMARxGuaD2FldZ1ZNGgtBUBmKzDdD2/y3cJncbYRICfOg5OKGD6yLc78O69g29nv28Bj4kNOoW1qIGyYzuCsEig1fmQnf8W1A+aQb9jBqbqdv4ae+0IH9gLqwU8nz+5XujWxKcAryysNQ2cnduR7F17J+3errLLGDmVkM+eP34uf81O2ukrOXszuHAJipij99yZQo8r/pnimtKg+QjgMMIVrWew3FokRnuu9apX885+ql7s/qjSEHvmDDyrgLVDV67AdcVMz+sBj3B74PHgCMAhwiKBZucyO/91qlfz4f3j5/Jn/P6tSff55CrcVsAxws+YgelifvaqwGsKaUkDZwA41N6199Hp7Si7jKF3cMc/VS+7GmkoReCypXwL30GaCvDk4g6n9DHAmDAAHCQsNJ/NWufHyq5jqNnxSxtyTw+uWhl8O0+egmoxowBnh0WeXEhLGigDwMFa3YtxTsThVQIcZ8cvbcZnm3DzgBfPzVbyvQEK4ijAGDAA7BcuX/t/6PSOK7uOoTQzASfM58/4JW3K5Uv5EsFBKmoXQuDVYRHfEEacAQAIH2pN0+r+etl1DJ1qJd+tb/u0S/mkLVrKBn+AzwlVeGQx3fIJwPmFtKSBMQAAdLJ30ctMswebm4QT5vKd+yT1xXVrsG/AmwOc62RArVPyASBc0TqFVucVZdcxNOrV/Dn//JT78kt91o1w9YAnBJ42AccXszPQS8IiPjYdYckHADq995O55h/In/XvmstDgKSBuL4F3xnw3gAFzQWYAL6/kJY0EEkHgLDQfDqtzrll11G6ABw3nT/rNwpJA/eRAY8CnDWZH0pUgBcU0ooGIukAQKf3HlJf9Vet5Hf90xNlVyIl45YOfHWAxwbXAjymmB9pA8AISzYAhIXmebS6p5VdR6kma/nzfof8pcJ9cnWw139cMXsCnBYWeXQhLanvkg0AdLO3lF1CqeYmYeesy/ukktzehW8PcHOgR9Vhspgf7xcW0or6LskAEBaap9LqPqHsOkpz3HQ+y19SqQZ5gl81wGN9DKCjSDIA0Mv+LtnT/nbM+LxfGhJfbcO9vcFd/8xiHgM8Nyzic8QRlFwACAvNGVrd9IasAnnn7z7+0tCIwL8PcBTgtIn8pMABOw542sBbUd8lFwDI4pvJYlppNQTYMWvnLw2hL7agOaDVSFXg9GJGAXwMMILSCwDt7k+XXUKhQoCdM/mMf0lDpxPhi83BXf9M5wHoCJIKAGH32hvoZunMfgshn+nvfv7SUPtKa3DXfkS9kDf67wuLFHcKgfoiqQBAN/vlskso1I4ZmEjraYc0im7tDu6QoHqAhwz+HqAOnDXwVtRXyQSAsNCcodN7XNl1FGb7tMP+0gj58oBHAQpwdiGtqG+SCQBk8XeSOfRndjI/2EfSyBjkY4CTDQA6jHQCQC9L4+zqqTpsS2eagzQubu/CngHtCWAA0OEkEQDCQvN42r1Hll3HwNWr+S5/kkbSVwZ0QNB0gF2Dnw70PQNvQX2VRAAgi/+FOObH/lUr+aS/kMZTDmkc3TTAEwILmAfwsLDIjoG3or5JIwB0e68qu4SB2zGThwBJI+u2LgxoMYCPAfQgY99jhIXmTjq9k8quY6DmJj3SVxoDnQh3dAdz7ZOLWRRkABgh479OLMbXMs6j//WqJ/tJY+SWDjx0AO/MU8Xc7m0qAIRF6sA2YPv+j9uAeaANLO1/7Tvw69hggEcopWP8A0AvvrzsEgYm4KQ/aczc0oHvHcCPdUH3QQ+aCBgWmQTOAB4PPG7/x0dyf2e/HdjQXUxYZJX7Q8E3gRuAG/e/bgC+GRsDe5oyNhIIANkTyi5hYOanoObQvzROvj2gRwAFJYCzwyI/zf0d/eOB06DvxwXP7H+dBDwW+P5DPt8Ki3yNPBD8J3A18InYYLXPdYy0EMd4dnxYaJ7IcuuOsusYiIka7JotuwpJA/CLO/q/bG81g7fc099rjpg2cC1w5f7Xp2KDAa67GH7jPQkwi79QdgkDEYJD/9IYG8SugHf51HwCOA/4r8DHgHvDIh8Ki/xOWOT0UisrybgHgJeWXcJAzE+65E8aY18YQAD4zFr/rzniZoAXAn8O3BAWuTYs8oawyK6S6yrMePci3Wz8dqaqVmBmsuwqJA3Q3h7c3Onv9W5MerB7Xc4F/ha4PSxycVjkFWGRsT5UZSwDQLh87exw6eo1dHvj95B821Q++1/SWPv3Pt6xf6ZZ2CqAcVAHXgZcCHwnLPJ3YZGxnEw+VpMAwwdXnkXkrbS743fnDzBRhV1zZVchqSDPmIHzZrZ2jZva8IEl6I3PW30ZInAZ8KbY4FNlF9MvYxEAwsXLryDyF3R7p5Vdy0DtmstDgKRkvHgevmeTT/1uasOFS9Ad/bf5YfJh8iDw0bIL2aqRDgDhkuUfohf/nl720LJrGbiper7fv6SkVIHnzcKTpjf2zNbOf+A+CfxJbLBQdiGbNZIBIFy2+iy62dvp9B5Vdi2FCMAJ8878lxK2q5oHgUcfZVpaBG5uw+ea8LX24A4W0gN8Fvj12ODjZReyUSMVAMIVrXNod99Fq5vWgRMzE7Dddf+S4KRaflbAiTU4sZrv8b+Uwe0d+I9WPuNfpXgH8NuxwZ1lF7JeIxEAwgV7a0zVP0Cr+0PEmN4c+BPmoebdvyQNuXuB3wf+YRTOIhj6ABA+uPI8etlFdLNtZddSiska7By/1YySNMb+Hfil2OAzZRdyNEMbAMIFe+tM1N5Ju/vjZddSqp2zeQiQJI2SDPg74Pdjg31lF3M4QxkAwsXLzyCLl9LLdpZdS6lqlXz4X5I0qr4OvCo2+GzZhRxq6B4sh0uW30ant5h85w9u+StJo+/RwCfDIr9SdiGHGpoRgHDp6gn0sk/Q6T227FqGQghw0nz+UZI0Di4Efj422Ft2ITAkIwBhoflKOr1b7PwPMlO385ek8fJK4HNhkaeVXQgMQQAIu9fexkr7A/Qyx7sPNjPWh1BJUqpOAxbDIr9WdiGlPQIIF+ytMFm7ilb3vFIKGGbVCpzo5D9JGnN/B/xKWXsGlBIAwgV7J6hXP0+n97jCGx8Fs5P5sb+SpHF3IfCa2KBVdMOFPwIIF+7bRq36dTv/o5hy3b8kJeKVwBVhke1FN1xoAAgXLT2MEG6i2zu5yHZHSiXAhAFAkhLyHODqsEihJ9sWFgDCRctnErnR9f3HMFkvuwJJUvGeCHwiLFLYarhCAkC4ZPkJZNl/0Mvc1P5YHP6XpFSdRh4CnlhEYwMPAOGytbPoxevIouvajiXgvv+SlLYTyOcEnDbohga6CiBc0TqL1fZnXOO/Tp78J0lbcnwVTq3DqRNwSh06Ee7pwb37Xzd34I5u2VWuy1eBZ8YGdw6qgYEFgLDQfBjN7tfp9lzPtl5zkzDvX5ckbdTOKrxsHk5axyDqrV347Bp8pQW9wZe2FZ8GnhsbLA/i4gMJAOHCfTNUKt+i29vV94uPsx0zMOUkQEnaiLMm4QfmYGKDu6evZvAfTfhcE/aVshXPuvwb8OLYoNPvC/c9AIQL9gZq1evpus5/w06cz3cBlCStyw/MwZO2OHAagRvb8PEVuGs4hwTeR75ZUF877P7POJuovou2nf+GVYKdvyRtwBmTW+/8IZ9/fcYEnD6Rjwh8fBVWhmtE4NXAd4A39vOifR0BCJesvI529219u2BKpur5IwBJ0jHVA/ziDtg2gPumdoRr1+C6NeiWc1zOkfxkbPCefl2sbwEgXLx8Dt3s08RY7csFUzM/lU8ClCQd07Nn4enTg21jKYOrV+BLhe/Sf0TLwFNjgxv6cbG+ZKdwwd55svgxO/8tqPtXJ0nrMRHgewfc+QPMV+Al8/Bj22BuOJ7QzgHvD4v0ZblYf/6T6tVr6GWeX7sVBgBJWpcdVSjyHfO0Cfj54+Cxw7Gd3ROAv+nHhbYcAMKlq39Fp3dWP4pJVgj5JEBJ0jEdV8L90nQFXrkNXjSXzz8o2evCIq/e6kW2FADCFa1n0er++laLSF61/H9NkjQqdpQ4HH/OFPzccfCQ8ndtf9tWDw7a9F9jWGhWaHYuI0Z7r63y7l+S1m1byU9Md1bhp46DM8udtz1PPh9g07vHbT5HdbN30Olt2/T3636V4ZhdIkmj4K4h2Mu/Sr718FMLmIx4FOcAv7nZb95UzxMuWXkire5rNtuoDuEIgCSt27f6vinu5gTg+2fhOeWe4fYHYZFTNvONm7v1zDKH/vvJHQAlad3u6uX7+A+L75uGF8/3a1ndhs2wyVUBG643XLz8a3SzkzfTmI7AEQBJ2pBvDskowAHfMwk/sg1q5bydvzws8oMb/aYN7QQYLtg7RSXcQxbLfeoxbjwFUJI2ZHs1n40/NWT3Tze24aJ99PfUnvX5BnBWbNBc7zdsbARgovY2O/8B8BGAJG3I3h7sXiq7igc7fSI/obAEjwJ+fyPfsO4RgHDR0in04k3EaG/Vb8fPuROgJG3CC2bhKUN4W7q4mr8K1gLOjg2+tp4vXn9nHsKFf5DUCgAAE1BJREFUdv6SpGFy5Qpcswa9sgs5RGMm3zSoYJPAH633i9c1AhA+uPI8Wt2PbKUqHYUjAJK0JTur8II5OG2IplNF4F/2wVfbhTbbA86IDb5+rC9c3x195H9stSIdxXCdNy1JI+eeHvzz3rzDvW0INgqCfJ+Al84XfnZBFfjd9XzhMUcAwhWtH2CpeUU/qtIR7JqFifI3lpakcfGQGjx5Ch4/WdrSvPvc1oV374ECty5oA4+JDW452hcdewSg3f2LflUkSVIRvtOF3cvw1nvg2jXoljjS+rBaPiegQBPAbx/ri446AhAuWT6VTu9mh6gHzBEASRqo7ZV8y97HlXSATwTesxe+XdwGRmvAabHBHUf6gmOMAIS32vkXwL9jSRqovRlcsgTv3APfLWGOwIH5AJPFPY6YBt54tC844ghAuGDvdkK4mxidnj5oO2dh0hEASSpCFThvFs4tYf+A61twaXEbGC0Bj4gN9h7uk0ceAahXf8POvyCZQwCSVJQecNUKvG8vLBV8qNBZk3BycUsV54EfPdInjxwAsvi/DaIaHUZviI61kqREfLMD/3gv3FLwwULPL/b44J8+0icOGwDCRUtPoJc9ZHD16AEMAJJUimaEf96XH+JTlIfW8uWJBWmERU473CcOPwJQqbxpoOXogQwAklSabsxP8Pv8us/R27pnzxa2P0EAfvJwn3hQAAgX7K3Q7b1w4CXpfj3nAEhSmSJwxTL8+1ox7W2vwFOLOyvgpw73hw8eAZis/TxZnBh4ObqfIwCSNBQ+spLP1C/C02dgupgj9h4bFvm+Q//wwU1HfqOQcnS/GF0JIElD4vIluKmAiYGTAZ5S3CjAgyYDPiAAhCu7Nbq9MwsrR/dzFECShkJGPifgOwVsGHTO1HpP5duyHwuLPGAB4gPbbXV/miyWfGxCoroGAEkaFu0IFy1Ba8CDs3MVOL2YFQE7ge89+A8eGAB62WFnCqoAnSE5v1KSBMDeHnxoefDtPLm4xwDPO/g3DwwA3eyphZWhB2r3yq5AknSI/2zBlwY8KfCUOhxfzL67hw8AYaH5SDq9+UJK0IN1ex4KJElD6F+X89GAQXpKMecSPD0scl9L948AZPFXC2lehxeBjqMAkjRs2hGuWh1sG2dNQnXwM/AmgWce+M39AaCXvWjgTevonAcgSUPpKy24dYBLAycC7ChmOcB9jwEOCgDxsHsFq0DOA5CkofWRlcFef0fB8wAqAOFf2/P0eiWcjKwH8BGAJA2t27rw5QFOCNxZTAB4alhkGxwYAehlL3cC2hDoZe4HIElD7LoBnhVQ0AhAFXgaHAgAWfTwn2GxVuCZlJKkDbm9m78GYaW4+78z4P4RgKcU1qyOrlnABtSSpE37zIBGAb5V3Nv/6XBfAIinFtasjq7rYwBJGmZfbsNqn9+mexFuLW4hWD4CEBYJ9LKZwprVsfkYQJKGVi/2fy7ArV3oFjcXb/8IwHLr8URnAA4VHwNI0lD7dBOW+jQKEIFPDnijoUOcGhaZrBDjkwttVsfmYwBJGmrdCB/vU6f9yVW4udj7virw6Aoxnl1os1ofHwNI0lD7QhM+19zaNW7pwGKxd/8HnF4h8phSmtbRrbY9HEiShtyHluFTm5wPcEsHLlkq7a3+jBpZPKWctnVUWYRmG6Ynyq5EknQUV63APT14xgxsX8d+/isZXLkC1w/4mOFjeEiNGE8qtQQd2YoBQJJGwX804YtNOGsKnjwFx1ehftDpfr0Id/Xgpg5cswqt8kd452tkcVvZVegIOj1od2GiVnYlkqRjyMhDwBf3zwvYXs1P+FvK8hGC8vv8B9hWA+xdhtlyC3b6v0iSRs3eXv4aUvMVYrR3GWatrksCJUn9Nl8hso4pCyrVSrkzRSRJY2e+AgaAobfWzo8KliSpP7ZViNEAMOwisG+Lu01IknS/+QqRcOyvU+manXxFgCRJWzdf8SCgEeIogCSpP2KFMGxLE3VEnV6+RbAkSVuzVCEEZ5eNkqUmjtpIkrZoqUIIw7tNgR4si/nmQJIkbd5ShYBjyqNmuZU/DpAkaXP2VQjBADCK9qz6KECStFlLFQJOLR9F3cxVAZKkzVqqQFgtuwpt0mo7PytAkqSN2VchsFx2FdqCPav5xEBJktZvqUKl8q2yq9AWZBH2rpVdhSRptNxWIfCFsqvQFjU7sOJcTknSut1YIYRPll2F+mDfmvMBJEnrdUOFGD9edhXqk3tXoev+AJKko+oC36jEF08vU6146zgOYoR7nBQoSTqqm2ODTgWASthTcjHql14G96zgEU+SpCO4AeBAALit1FLUX51evjxQkqQHuxEOBIAQvlZqKeq/ZiefGChJ0gMdNAJQrVxdaikajJW2ewRIkg51UACoVd5NCKVWowFZNQRIku7TAf4d9geA+MKJe6hV9pZakgZnte2cAEkSwHWxwQocGAEAqFU+X1o5Gry1Tr5PgCQpZVce+MX9AaBS+ZdSSlFxmvtDgEsEJSlVhwkAgbc7DyABzQ7cvZzvFyBJSskacM2B39wXAOL5U/uoVe4tpSQVq9ODu5ah7bbBkpSQT8QGrQO/qTzgU9XKZwovR+XIItyznE8QlCSl4MqDf/PAAFCrvLPQUlSuSL5E0GWCkpSCowSA+an3UvNgoOSstuHuFQ8RkqTx9V3g0wf/wQMCQGzQo167rtCSNBzaXbhzKV8uKEkaN++NDR4w8avyoC+pV/6ssHI0XLKYbxh0r0cKS9KYedAj/hDjg9/ow8XLK3R6M4WUpOFUCbB9GqbqZVciSdqaL8UG33PoHz54BACgXv23gZej4ZbFfCRgj6MBkjTiDjvB//ABoFr5w4GWotGx1snnBrhcUJJGUQa853CfOGwAiC+a/A/q1bsHWpJGRxbzpYJ3LuU7CUqSRsVHYoPbDveJw48AAEzW/tfAytFo6mb5Y4G7V/LdBCVJw+6I+/scdhIgQFhkhjuX99Lt1QZWlkbbdB3mp6B65BwpSSrN3cApscFhj4I94jt3bLDKVM0TAnVkax347lI+UdARAUkaNn9zpM4fjjICABCuznZy98qd9DJv8XRsE1WYnXTpoCSVbx9wamyw50hfcNSOPT67cg9T9Q/1vSyNp3YvnyPw3SVYacFRwqUkaaDeerTOH44xAgAQruw9nHtXbiGLoa+lafyFAFO1fERgsg7+C5KkIqwCj4wN7jzaFx1zaD8+r3orU/XFvpWldMSYzxO4dxXu2JfPFWh28lMIJUmD8t+P1fnDOkYAAMJHuo9l79oN9DLv4bR1B48MTNTybYclSf3QBh4VG9x6rC9c1+S++PzaV5mZuGrLZUnw4JGBO5fyjYbWOtDLyq5OkkbZ29fT+cM6RwAAwiIP5+6Vb9LuVrdUmnQs1Uq+oqBeg1olf7nXgCQdyzJwZt8DAED4cOcvuXf1jZutTNqSA0GgVoFqNf8YyB8phJD/urL/15KUnt+ODf5ivV+8sQCwSI09a3ew1t65qdKkohwIBpIGr1rJw/eBj/UqTNb8GSzW9cA5sUF3vd+woQAAEK7svYR7Vy71iFhJ0hGFkIeAyf0Tfp3sO2jPiQ2u3sg3bDgAAISF5jUst75vw98oSUpPCDA3CbMTjgoMxrtjg5/a6DdtbmbV7OQrmaite5hBkpSwGGGpCXcuw2q77GrGzV7gtzfzjZsKAPG8cBvzU3/skI4kad16Wb7k954Vtwrvnz+IDb6zmW/c/Nqqieqfsm36hk1/vyQpTa0u3LXivh9bdw3w3zb7zZuaA3DfNy9yCnvXbmS1Pbnpi0iS0lQJsHM2XzWgjbqXfNb/tzZ7gS3trhIbfIv5qZ/0f54kacOymD8OcCRgM352K50/bDEAAMTzwgfYNvV2Z3ZKkjYsi/m24M4J2Ii/ig0+uNWL9Gd/1Yna65if/EZfriVJSkunB3vWyq5iVHwK+N1+XKgvASA26DA7+XxmJ1r9uJ4kKTHNTv7S0ewBfjw26MtfVN9OWIkNbmZ++tVM1ft1SUlSSpaaZVcw7H4uNri5Xxfr6xFr8VlcxPbpNzkpUJK0Yd3MjYKO7I9ig4v7ecEtLQM84kWvzt7O3Ss/48xOSdKGVAKcuC0/0EsH/H1s8Ev9vuhgDlmvVl7LjpkPuVOgJGlDsghtd5o/yIXAGwZx4YEEgNggo159GcfNfNYUJ0naECcDHnAV8JrYYCDD6YMZAQBigxaTtedy3MzX3CNAkrRuLUcAgM8BL48NBra6bmABACA22MdUvcHOmVsNAZKkdell+d4A6fo6cH5ssG+QjQw0AADEBncwUTuPXbO3OSdAkrQu3WQnkd8MvDA2uGPQDQ08AADEBt+gXn0qO2dvNARIko4pSzIAfAF4RmxQyM66hQQAgNjgdurVc9k1+2mqhTUrSRpFveTOBvg48OzY4PaiGiy0J44N9lCrPouds/9Kzc2CJElHkNYIwCXkw/57imy08Fvx2KBJrfKD7Jp9h9sGS5IOK50BgH8EXhkbFL4P8kB2Alx344v8KSut32Of+z9Lkg4yMwHbp8uuYtD+LDb4/bIaLzUAAIRFfoZW923sWZ0kSyfySZKOYn4K5ibLrmJQVoFfjg3eUWYRpQcAgLDI4+hmF7Nn9fTE135KkiC/+5+ZKLuKQbge+NHY4MtlFzIU0/Fjgy9Tq5zDrtl3jOn/cEnSRoznarH/CTxtGDp/GJIRgIOFRX6SVvcf2Ls27WmCkpSgAJy0jTHaQXYZ+KXY4N1lF3KwoQsAAGGRM8jiB1hqnu3Z0JKUmKk67Jgpu4p++QLwqtjghrILOdRQjrHEBjdQCU9j+/Sb2DnbHdOhIEnS4UzWyq6gH9rAm4Bzh7HzhyEdAThYWOQMYvx7lprPYcXRAEkaeydtY8S3jf8I8IZh7fgPGPoAcEBY5Mfp9P4/lprHe1SkJI2p0V7/fzvwxtjgn8ouZD1GZmw9Nvgn6tVHs3P2b9g5m1F3K2FJGish5Ov/R08P+BvgzFHp/GGERgAOFhY5B/hL1jrPY6mJqwUkaQzMTY5iALgS+M3Y4PNlF7JRIxkADgiLPJ3IH7DWPp+lJu4kKEkjqlqBE+ZGaenfbuBPYoNryi5ks0Y6ABwQFnkSMf4Ba52Xs9oO7iYoSSMkBNg1ywg82s2AfwH+NDb4XNnFbNVYBIADwiKPA36PdvcnWGlXaXbKLkmSdCw7Zhjy02G7wPvID+8Zil38+mGsAsABYZHTgNfRzX6G1fZDWW3DGP53StLIG+5Df24B3gP8Q2xwU9nF9NtYBoADwiIV4Dlk8bU0O6+k2Zmi3U3pnGlJGl7DeeDPMnAh8E7go7HB2M4yH+sAcLCwyAzww2Tx52h1n0uzU6HVMQxIUtEqIR/2nxiaHf96wIeBdwEXxQarJddTiGQCwMHCIg8FXkoWX0Cr+wKane20u64ikKRBm6jBcdPDcNrfHcBV+1+Xxga3l1xP4ZIMAIcKizweeB7t7g/RyZ5BpztLu+f+ApLUL/Vq/ry/vH3+7wY+yv5OPzb4z7IKGRYGgEOERQLwPcB5dLOn0e4+mU7vkXSzOXqZoUCSNmKyBtMTMF3oLP/bgBv2v64HPgZ8MTZ86HswA8A6hUXmgTPI4tl0eufSy84mi6fQy+bpZTP0sjqRCll0xYGkNIUA1ZDf7U/WYarW7419IrAC7AOW9n+8mbyj/8r+jzfEBkv9bHRcGQD6aP/owRywjU7vBHrZicS4k16cIcZpYhzqha6StHEho1rZy0T1TurVfk6ei8AqeUd/oLNf9i6+fwwAkiQlqPRpmJIkqXgGAEmSEmQAkCQpQQYASZISZACQJClBBgBJkhJkAJAkKUEGAEmSEmQAkCQpQQYASZISZACQJClBBgBJkhJkAJAkKUEGAEmSEmQAkCQpQQYASZISZACQJClBBgBJkhJkAJAkKUEGAEmSEmQAkCQpQQYASZISZACQJClBBgBJkhJkAJAkKUEGAEmSEmQAkCQpQQYASZISZACQJClBBgBJkhJkAJAkKUEGAEmSEmQAkCQpQQYASZISZACQJClBBgBJkhJkAJAkKUEGAEmSEmQAkCQpQQYASZISZACQJClBBgBJkhJkAJAkKUEGAEmSEmQAkCQpQQYASZISZACQJClBBgBJkhJkAJAkKUEGAEmSEmQAkCQpQQYASZISZACQJClBBgBJkhJkAJAkKUEGAEmSEmQAkCQpQQYASZISZACQJClBBgBJkhJkAJAkKUEGAEmSEmQAkCQpQQYASZISZACQJClBBgBJkhJkAJAkKUEGAEmSEmQAkCQpQQYASZISZACQJClBBgBJkhJkAJAkKUEGAEmSEmQAkCQpQQYASZISZACQJClBBgBJkhJkAJAkKUEGAEmSEmQAkCQpQQYASZISZACQJClBBgBJkhJkAJAkKUEGAEmSEmQAkCQpQQYASZISZACQJClBBgBJkhJkAJAkKUEGAEmSEmQAkCQpQQYASZISZACQJClBBgBJkhJkAJAkKUEGAEmSEmQAkCQpQQYASZISZACQJClBBgBJkhJkAJAkKUEGAEmSEmQAkCQpQQYASZISZACQJClBBgBJkhJkAJAkKUEGAEmSEmQAkCQpQQYASZISZACQJClB/z/OoWPxsd7aJQAAAABJRU5ErkJggg==;" vertex="1" parent="1">
          <mxGeometry x="170" y="170" width="288" height="288" as="geometry" />
        </mxCell>
        <mxCell id="Xk6L46Khj1X6TItAejbs-1" value="" style="image;html=1;image=img/lib/clip_art/networking/Switch_128x128.png" vertex="1" parent="1">
          <mxGeometry x="91" y="101" width="90" height="80" as="geometry" />
        </mxCell>
        <mxCell id="Xk6L46Khj1X6TItAejbs-2" value="" style="image;html=1;image=img/lib/clip_art/networking/Router_Icon_128x128.png" vertex="1" parent="1">
          <mxGeometry x="291" y="101" width="80" height="80" as="geometry" />
        </mxCell>
        <mxCell id="Xk6L46Khj1X6TItAejbs-3" value="" style="image;html=1;image=img/lib/clip_art/networking/Router_Icon_128x128.png" vertex="1" parent="1">
          <mxGeometry x="280" y="435" width="80" height="80" as="geometry" />
        </mxCell>
        <mxCell id="Xk6L46Khj1X6TItAejbs-7" value="" style="image;html=1;image=img/lib/clip_art/networking/Router_Icon_128x128.png" vertex="1" parent="1">
          <mxGeometry x="85" y="440" width="80" height="80" as="geometry" />
        </mxCell>
        <mxCell id="Xk6L46Khj1X6TItAejbs-9" value="" style="image;html=1;image=img/lib/clip_art/networking/Switch_128x128.png" vertex="1" parent="1">
          <mxGeometry x="75" y="560" width="90" height="80" as="geometry" />
        </mxCell>
        <mxCell id="Xk6L46Khj1X6TItAejbs-10" value="" style="image;html=1;image=img/lib/clip_art/networking/Switch_128x128.png" vertex="1" parent="1">
          <mxGeometry x="276" y="553" width="90" height="80" as="geometry" />
        </mxCell>
        <mxCell id="Xk6L46Khj1X6TItAejbs-11" value="" style="image;html=1;image=img/lib/clip_art/networking/Switch_128x128.png" vertex="1" parent="1">
          <mxGeometry x="475" y="555" width="90" height="80" as="geometry" />
        </mxCell>
        <mxCell id="Xk6L46Khj1X6TItAejbs-13" value="" style="endArrow=none;html=1;rounded=0;strokeWidth=4;" edge="1" parent="1" target="Xk6L46Khj1X6TItAejbs-2">
          <mxGeometry width="50" height="50" relative="1" as="geometry">
            <mxPoint x="181" y="141" as="sourcePoint" />
            <mxPoint x="276" y="131" as="targetPoint" />
          </mxGeometry>
        </mxCell>
        <mxCell id="Xk6L46Khj1X6TItAejbs-14" value="" style="endArrow=none;html=1;rounded=0;strokeWidth=4;exitX=0;exitY=0.25;exitDx=0;exitDy=0;" edge="1" parent="1">
          <mxGeometry width="50" height="50" relative="1" as="geometry">
            <mxPoint x="500" y="458" as="sourcePoint" />
            <mxPoint x="440" y="378" as="targetPoint" />
          </mxGeometry>
        </mxCell>
        <mxCell id="Xk6L46Khj1X6TItAejbs-15" value="" style="endArrow=none;html=1;rounded=0;strokeWidth=4;" edge="1" parent="1">
          <mxGeometry width="50" height="50" relative="1" as="geometry">
            <mxPoint x="320.5" y="450" as="sourcePoint" />
            <mxPoint x="320.5" y="400" as="targetPoint" />
          </mxGeometry>
        </mxCell>
        <mxCell id="Xk6L46Khj1X6TItAejbs-16" value="" style="endArrow=none;html=1;rounded=0;strokeWidth=4;" edge="1" parent="1" target="Xk6L46Khj1X6TItAejbs-4">
          <mxGeometry width="50" height="50" relative="1" as="geometry">
            <mxPoint x="510" y="480" as="sourcePoint" />
            <mxPoint x="350" y="289.9964335664336" as="targetPoint" />
          </mxGeometry>
        </mxCell>
        <mxCell id="Xk6L46Khj1X6TItAejbs-4" value="" style="image;html=1;image=img/lib/clip_art/networking/Router_Icon_128x128.png" vertex="1" parent="1">
          <mxGeometry x="476" y="437" width="80" height="80" as="geometry" />
        </mxCell>
        <mxCell id="Xk6L46Khj1X6TItAejbs-17" value="" style="endArrow=none;html=1;rounded=0;strokeWidth=4;exitX=0;exitY=0.25;exitDx=0;exitDy=0;" edge="1" parent="1">
          <mxGeometry width="50" height="50" relative="1" as="geometry">
            <mxPoint x="124.5" y="576" as="sourcePoint" />
            <mxPoint x="124.5" y="506" as="targetPoint" />
          </mxGeometry>
        </mxCell>
        <mxCell id="Xk6L46Khj1X6TItAejbs-18" value="" style="endArrow=none;html=1;rounded=0;strokeWidth=4;exitX=0;exitY=0.25;exitDx=0;exitDy=0;" edge="1" parent="1">
          <mxGeometry width="50" height="50" relative="1" as="geometry">
            <mxPoint x="324.5" y="570" as="sourcePoint" />
            <mxPoint x="324.5" y="500" as="targetPoint" />
          </mxGeometry>
        </mxCell>
        <mxCell id="Xk6L46Khj1X6TItAejbs-19" value="" style="endArrow=none;html=1;rounded=0;strokeWidth=4;exitX=0;exitY=0.25;exitDx=0;exitDy=0;" edge="1" parent="1">
          <mxGeometry width="50" height="50" relative="1" as="geometry">
            <mxPoint x="519.5" y="570" as="sourcePoint" />
            <mxPoint x="519.5" y="500" as="targetPoint" />
          </mxGeometry>
        </mxCell>
        <mxCell id="Xk6L46Khj1X6TItAejbs-21" value="" style="rounded=0;whiteSpace=wrap;html=1;fillColor=#d5e8d4;strokeColor=#82b366;" vertex="1" parent="1">
          <mxGeometry x="84" y="791" width="120" height="10" as="geometry" />
        </mxCell>
        <mxCell id="Xk6L46Khj1X6TItAejbs-24" value="" style="rounded=0;whiteSpace=wrap;html=1;fillColor=#d5e8d4;strokeColor=#82b366;" vertex="1" parent="1">
          <mxGeometry x="160" y="492" width="130" height="10" as="geometry" />
        </mxCell>
        <mxCell id="Xk6L46Khj1X6TItAejbs-25" value="" style="rounded=0;whiteSpace=wrap;html=1;fillColor=#e3c800;strokeColor=#B09500;fontColor=#000000;" vertex="1" parent="1">
          <mxGeometry x="84" y="830" width="116" height="10" as="geometry" />
        </mxCell>
        <mxCell id="Xk6L46Khj1X6TItAejbs-26" value="" style="rounded=0;whiteSpace=wrap;html=1;fillColor=#f8cecc;strokeColor=#b85450;rotation=-90;" vertex="1" parent="1">
          <mxGeometry x="190" y="280" width="240" height="10" as="geometry" />
        </mxCell>
        <mxCell id="Xk6L46Khj1X6TItAejbs-27" value="" style="rounded=0;whiteSpace=wrap;html=1;fillColor=#bac8d3;strokeColor=#23445d;" vertex="1" parent="1">
          <mxGeometry x="160" y="462" width="120" height="10" as="geometry" />
        </mxCell>
        <mxCell id="Xk6L46Khj1X6TItAejbs-28" value="" style="rounded=0;whiteSpace=wrap;html=1;fillColor=#bac8d3;strokeColor=#23445d;" vertex="1" parent="1">
          <mxGeometry x="356" y="458" width="120" height="10" as="geometry" />
        </mxCell>
        <mxCell id="Xk6L46Khj1X6TItAejbs-29" value="" style="endArrow=none;html=1;rounded=0;strokeWidth=4;exitX=0;exitY=0.25;exitDx=0;exitDy=0;" edge="1" parent="1">
          <mxGeometry width="50" height="50" relative="1" as="geometry">
            <mxPoint x="120" y="457" as="sourcePoint" />
            <mxPoint x="180" y="380" as="targetPoint" />
          </mxGeometry>
        </mxCell>
        <mxCell id="Xk6L46Khj1X6TItAejbs-30" value="" style="endArrow=none;html=1;rounded=0;strokeWidth=4;exitX=0;exitY=0.25;exitDx=0;exitDy=0;" edge="1" parent="1">
          <mxGeometry width="50" height="50" relative="1" as="geometry">
            <mxPoint x="330" y="235" as="sourcePoint" />
            <mxPoint x="330" y="165" as="targetPoint" />
          </mxGeometry>
        </mxCell>
        <mxCell id="Xk6L46Khj1X6TItAejbs-31" value="" style="rounded=0;whiteSpace=wrap;html=1;fillColor=#f8cecc;strokeColor=#b85450;" vertex="1" parent="1">
          <mxGeometry x="356" y="474" width="119" height="10" as="geometry" />
        </mxCell>
        <mxCell id="Xk6L46Khj1X6TItAejbs-33" value="" style="rounded=0;whiteSpace=wrap;html=1;fillColor=#f8cecc;strokeColor=#b85450;" vertex="1" parent="1">
          <mxGeometry x="165" y="477" width="119" height="10" as="geometry" />
        </mxCell>
        <mxCell id="Xk6L46Khj1X6TItAejbs-36" value="" style="shape=flexArrow;endArrow=none;html=1;rounded=0;fillColor=#bac8d3;strokeColor=#23445d;endWidth=70;endSize=22;width=14;endFill=0;" edge="1" parent="1">
          <mxGeometry width="50" height="50" relative="1" as="geometry">
            <mxPoint x="155" y="450" as="sourcePoint" />
            <mxPoint x="476" y="450.4830483917706" as="targetPoint" />
            <Array as="points">
              <mxPoint x="267.96000000000004" y="410" />
              <mxPoint x="327.96000000000004" y="410" />
              <mxPoint x="377.96000000000004" y="410" />
            </Array>
          </mxGeometry>
        </mxCell>
        <mxCell id="Xk6L46Khj1X6TItAejbs-37" value="" style="rounded=0;whiteSpace=wrap;html=1;fillColor=#bac8d3;strokeColor=#23445d;" vertex="1" parent="1">
          <mxGeometry x="84" y="709" width="120" height="10" as="geometry" />
        </mxCell>
        <mxCell id="Xk6L46Khj1X6TItAejbs-38" value="" style="rounded=0;whiteSpace=wrap;html=1;fillColor=#f8cecc;strokeColor=#b85450;" vertex="1" parent="1">
          <mxGeometry x="85" y="751" width="119" height="10" as="geometry" />
        </mxCell>
        <mxCell id="Xk6L46Khj1X6TItAejbs-39" value="" style="shape=flexArrow;endArrow=none;html=1;rounded=0;fillColor=#d5e8d4;strokeColor=#82b366;strokeWidth=1;endFill=0;exitX=0.975;exitY=0.9;exitDx=0;exitDy=0;exitPerimeter=0;" edge="1" parent="1">
          <mxGeometry width="50" height="50" relative="1" as="geometry">
            <mxPoint x="158" y="507" as="sourcePoint" />
            <mxPoint x="485" y="505" as="targetPoint" />
            <Array as="points">
              <mxPoint x="265" y="525" />
              <mxPoint x="375" y="525" />
            </Array>
          </mxGeometry>
        </mxCell>
        <mxCell id="Xk6L46Khj1X6TItAejbs-40" value="" style="rounded=0;whiteSpace=wrap;html=1;fillColor=#d5e8d4;strokeColor=#82b366;" vertex="1" parent="1">
          <mxGeometry x="351" y="489" width="130" height="10" as="geometry" />
        </mxCell>
        <mxCell id="Xk6L46Khj1X6TItAejbs-42" value="" style="rounded=0;whiteSpace=wrap;html=1;fillColor=#e3c800;strokeColor=#B09500;rotation=-90;fontColor=#000000;" vertex="1" parent="1">
          <mxGeometry x="230" y="280" width="240" height="10" as="geometry" />
        </mxCell>
        <mxCell id="Xk6L46Khj1X6TItAejbs-43" value="" style="rounded=0;whiteSpace=wrap;html=1;fillColor=#e3c800;strokeColor=#B09500;rotation=-115;fontColor=#000000;" vertex="1" parent="1">
          <mxGeometry x="275" y="299" width="320" height="10" as="geometry" />
        </mxCell>
        <mxCell id="Xk6L46Khj1X6TItAejbs-44" value="" style="rounded=0;whiteSpace=wrap;html=1;fillColor=#e3c800;strokeColor=#B09500;rotation=-60;fontColor=#000000;" vertex="1" parent="1">
          <mxGeometry x="30" y="299" width="350" height="10" as="geometry" />
        </mxCell>
        <mxCell id="Xk6L46Khj1X6TItAejbs-45" value="" style="endArrow=none;html=1;rounded=0;strokeWidth=4;exitX=0;exitY=0.25;exitDx=0;exitDy=0;" edge="1" parent="1">
          <mxGeometry width="50" height="50" relative="1" as="geometry">
            <mxPoint x="556" y="780" as="sourcePoint" />
            <mxPoint x="466" y="780" as="targetPoint" />
          </mxGeometry>
        </mxCell>
        <mxCell id="Xk6L46Khj1X6TItAejbs-47" value="TÃNEL" style="text;html=1;strokeColor=none;fillColor=none;align=center;verticalAlign=middle;whiteSpace=wrap;rounded=0;fontSize=16;fontStyle=1" vertex="1" parent="1">
          <mxGeometry x="240" y="699" width="65" height="30" as="geometry" />
        </mxCell>
        <mxCell id="Xk6L46Khj1X6TItAejbs-48" value="TÃNEL" style="text;html=1;strokeColor=none;fillColor=none;align=center;verticalAlign=middle;whiteSpace=wrap;rounded=0;fontSize=16;fontStyle=1" vertex="1" parent="1">
          <mxGeometry x="240" y="741" width="65" height="30" as="geometry" />
        </mxCell>
        <mxCell id="Xk6L46Khj1X6TItAejbs-49" value="TÃNEL" style="text;html=1;strokeColor=none;fillColor=none;align=center;verticalAlign=middle;whiteSpace=wrap;rounded=0;fontSize=16;fontStyle=1" vertex="1" parent="1">
          <mxGeometry x="240" y="781" width="65" height="30" as="geometry" />
        </mxCell>
        <mxCell id="Xk6L46Khj1X6TItAejbs-50" value="TÃNEL" style="text;html=1;strokeColor=none;fillColor=none;align=center;verticalAlign=middle;whiteSpace=wrap;rounded=0;fontSize=16;fontStyle=1" vertex="1" parent="1">
          <mxGeometry x="240" y="820" width="65" height="30" as="geometry" />
        </mxCell>
        <mxCell id="Xk6L46Khj1X6TItAejbs-51" value="LIGAÃÃO NÃO TÃNEL" style="text;html=1;strokeColor=none;fillColor=none;align=center;verticalAlign=middle;whiteSpace=wrap;rounded=0;fontSize=16;fontStyle=1" vertex="1" parent="1">
          <mxGeometry x="565" y="761" width="185" height="30" as="geometry" />
        </mxCell>
        <mxCell id="Xk6L46Khj1X6TItAejbs-52" value="HUB AND SPOKE" style="text;html=1;strokeColor=none;fillColor=none;align=center;verticalAlign=middle;whiteSpace=wrap;rounded=0;fontSize=16;fontStyle=1" vertex="1" parent="1">
          <mxGeometry x="230" y="30" width="185" height="30" as="geometry" />
        </mxCell>
      </root>
    </mxGraphModel>
  </diagram>
</mxfile>
